<svg width="29" height="21" viewBox="0 0 29 21" fill="none" xmlns="http://www.w3.org/2000/svg">
<path d="M24.5497 1.74079C22.7014 0.935051 20.7193 0.341422 18.6469 0.00142624C18.6091 -0.00513558 18.5714 0.0112628 18.552 0.0440602C18.2971 0.474793 18.0147 1.03672 17.817 1.47839C15.588 1.16136 13.3704 1.16136 11.1871 1.47839C10.9894 1.0269 10.6968 0.474793 10.4407 0.0440602C10.4213 0.012357 10.3836 -0.0040413 10.3458 0.00142624C8.27456 0.340336 6.29247 0.933965 4.44296 1.74079C4.42695 1.74734 4.41323 1.75829 4.40412 1.77249C0.644515 7.10863 -0.385398 12.3136 0.119843 17.4541C0.122129 17.4792 0.136989 17.5033 0.157564 17.5186C2.63804 19.2492 5.04081 20.2998 7.39896 20.9962C7.4367 21.0071 7.47669 20.994 7.50071 20.9645C8.05853 20.2408 8.55578 19.4777 8.98212 18.6752C9.00728 18.6282 8.98326 18.5725 8.93184 18.5539C8.14312 18.2696 7.3921 17.9231 6.66967 17.5295C6.61253 17.4978 6.60796 17.4202 6.66052 17.383C6.81255 17.2748 6.96462 17.1621 7.10978 17.0484C7.13604 17.0277 7.17264 17.0233 7.20352 17.0364C11.9496 19.095 17.0877 19.095 21.7777 17.0364C21.8086 17.0222 21.8452 17.0266 21.8726 17.0474C22.0178 17.1611 22.1698 17.2748 22.323 17.383C22.3756 17.4202 22.3722 17.4978 22.315 17.5295C21.5926 17.9307 20.8416 18.2696 20.0517 18.5528C20.0003 18.5714 19.9774 18.6282 20.0026 18.6752C20.4381 19.4766 20.9353 20.2396 21.4828 20.9634C21.5057 20.994 21.5468 21.0071 21.5846 20.9962C23.9542 20.2998 26.3569 19.2492 28.8374 17.5186C28.8591 17.5033 28.8728 17.4803 28.8751 17.4552C29.4798 11.5122 27.8623 6.34993 24.5874 1.77357C24.5794 1.75829 24.5657 1.74734 24.5497 1.74079ZM9.69086 14.3241C8.26198 14.3241 7.08462 13.0778 7.08462 11.5472C7.08462 10.0167 8.23915 8.77039 9.69086 8.77039C11.154 8.77039 12.3199 10.0276 12.2971 11.5472C12.2971 13.0778 11.1425 14.3241 9.69086 14.3241ZM19.327 14.3241C17.8981 14.3241 16.7208 13.0778 16.7208 11.5472C16.7208 10.0167 17.8753 8.77039 19.327 8.77039C20.7901 8.77039 21.9561 10.0276 21.9332 11.5472C21.9332 13.0778 20.7901 14.3241 19.327 14.3241Z" fill="#FF7FBF"/>
</svg>
