<svg width="28" height="23" viewBox="0 0 28 23" fill="none" xmlns="http://www.w3.org/2000/svg">
<path d="M27.5851 2.64921C26.5609 3.09849 25.4695 3.39629 24.3317 3.54089C25.5022 2.84201 26.3956 1.74376 26.8157 0.420018C25.7243 1.0707 24.5193 1.53031 23.2352 1.7868C22.1989 0.68339 20.722 0 19.1107 0C15.9847 0 13.468 2.53732 13.468 5.64786C13.468 6.09542 13.5059 6.52577 13.5989 6.93546C8.90466 6.70651 4.75095 4.45666 1.96059 1.02939C1.47344 1.87459 1.18769 2.84201 1.18769 3.88344C1.18769 5.83894 2.1947 7.57237 3.69575 8.57594C2.78858 8.55872 1.89862 8.29535 1.14465 7.8805C1.14465 7.89771 1.14465 7.92009 1.14465 7.94247C1.14465 10.6864 3.10187 12.9655 5.66845 13.4905C5.20884 13.6161 4.70792 13.6764 4.18806 13.6764C3.82657 13.6764 3.46164 13.6557 3.11908 13.58C3.85067 15.8161 5.92666 17.46 8.39513 17.5134C6.47406 19.0161 4.03486 19.9216 1.39426 19.9216C0.931203 19.9216 0.487086 19.9009 0.0429688 19.8441C2.54414 21.4571 5.50836 22.378 8.70497 22.378C19.0952 22.378 24.7758 13.7711 24.7758 6.31059C24.7758 6.06099 24.7672 5.82 24.7552 5.58073C25.8758 4.78545 26.8174 3.79221 27.5851 2.64921Z" fill="#FF7FBF"/>
</svg>
