<?xml version="1.0" encoding="UTF-8" standalone="no"?>
<!-- Created with Inkscape (http://www.inkscape.org/) -->

<svg
   inkscape:export-ydpi="96"
   inkscape:export-xdpi="96"
   inkscape:export-filename="/Users/johnkelly/mseyes5.png"
   id="svg63"
   version="1.1"
   viewBox="0 0 134.44034 59.453689"
   height="59.45369mm"
   width="134.44034mm"
   sodipodi:docname="miladystationeyes.svg"
   inkscape:version="1.1.1 (c3084ef, 2021-09-22)"
   xmlns:inkscape="http://www.inkscape.org/namespaces/inkscape"
   xmlns:sodipodi="http://sodipodi.sourceforge.net/DTD/sodipodi-0.dtd"
   xmlns="http://www.w3.org/2000/svg"
   xmlns:svg="http://www.w3.org/2000/svg">
  <sodipodi:namedview
     id="namedview65"
     pagecolor="#ffffff"
     bordercolor="#666666"
     borderopacity="1.0"
     inkscape:pageshadow="2"
     inkscape:pageopacity="0.0"
     inkscape:pagecheckerboard="0"
     inkscape:document-units="mm"
     showgrid="false"
     fit-margin-top="0"
     fit-margin-left="0"
     fit-margin-right="0"
     fit-margin-bottom="0"
     inkscape:zoom="0.98795379"
     inkscape:cx="227.23735"
     inkscape:cy="15.688993"
     inkscape:window-width="1312"
     inkscape:window-height="969"
     inkscape:window-x="0"
     inkscape:window-y="23"
     inkscape:window-maximized="0"
     inkscape:current-layer="layer1" />
  <defs
     id="defs60" />
  <g
     inkscape:label="Layer 1"
     inkscape:groupmode="layer"
     id="layer1"
     transform="translate(64.53019,-108.76797)">
    <path
       id="path177"
       style="fill:#ffffff;stroke:#ffffff;stroke-width:0.999999px;stroke-linecap:butt;stroke-linejoin:miter;stroke-opacity:1"
       d="M 159.58594 84.736328 L 133.41016 85.890625 L 124.55664 87.044922 L 79.132812 103.21289 L 47.951172 137.47461 L 50.261719 147.48242 L 72.972656 144.40234 L 73.742188 141.32422 L 78.746094 139.39844 L 81.441406 142.86328 L 89.910156 176.73828 L 96.839844 176.73828 L 101.45898 180.20312 L 102.99805 186.74805 L 112.23828 189.44141 L 117.62695 197.91016 L 127.25 197.14062 L 129.94531 198.29492 L 129.94531 209.07422 L 173.82812 201.75977 L 176.13867 194.44531 L 190.76758 189.82617 L 199.62109 170.58008 L 205.39453 169.80859 L 203.85547 162.11133 L 203.4707 122.46094 L 201.92969 118.99609 L 201.92969 106.29297 L 196.15625 103.59766 L 196.15625 102.05859 L 196.15625 94.744141 L 187.30273 94.359375 L 172.67383 87.431641 L 164.97461 88.201172 L 159.58594 84.736328 z M 129.1543 97.300781 L 136.99805 97.300781 L 142.88281 102.5957 L 143.4707 112.59766 L 137.7832 124.16992 L 134.25195 128.48438 L 129.9375 130.44531 L 123.26953 130.64062 L 118.5625 129.46484 L 113.66016 124.56055 L 110.32617 118.67773 L 109.3457 112.79297 L 110.7168 106.32227 L 126.60352 100.04492 L 129.1543 97.300781 z "
       transform="matrix(0.26458333,0,0,0.26458333,-64.53019,108.76797)" />
    <path
       style="fill:#ffffff;stroke:#ffffff;stroke-width:0.264583px;stroke-linecap:butt;stroke-linejoin:miter;stroke-opacity:1"
       d="m -14.565775,127.31743 0.407403,2.03701 -4.532625,0.61855 -0.767144,-0.38357 -3.212422,0.28768 -0.719199,-0.6233 -2.25349,0.19178 -0.191786,0.43152 -3.308316,0.52741 -0.815091,-0.43152 -0.815091,0.19179 -0.43152,0.62331 -1.198665,-0.23974 -1.00688,0.0959 -2.637062,1.15071 -2.397329,0.95894 -6.185112,0.91098 -0.191786,-0.52741 1.869919,-1.10277 7.335827,-2.39733 12.274328,-2.25349 z"
       id="path245" />
    <path
       style="fill:#ffffff;stroke:#ffffff;stroke-width:0.264583px;stroke-linecap:butt;stroke-linejoin:miter;stroke-opacity:1"
       d="m -52.491372,126.41564 1.347639,5.00551 2.502755,-1.54016 24.257479,-7.70078 -2.984056,-3.08032 -1.443897,-0.28878 -0.481299,0.77008 -1.443897,-0.19252 -0.577559,1.05886 -2.021456,-0.67382 -16.075393,5.58307 z"
       id="path313" />
    <path
       style="fill:#ffffff;stroke:#ffffff;stroke-width:0.264583px;stroke-linecap:butt;stroke-linejoin:miter;stroke-opacity:1"
       d="m 34.965851,112.81517 -0.185271,1.57481 -1.20427,0.64845 -0.185272,1.57482 2.086872,0.39024 1.954379,0.0766 6.093063,0.0383 3.448905,0.61314 0.65146,0.42153 2.720803,0.30657 0.881385,-0.34489 0.536495,-1.41788 1.456206,-0.65146 v -0.76642 l -9.848537,-1.68614 -1.91606,-1.37956 -0.804743,0.99635 -1.149633,0.45986 -0.498176,-0.57482 z"
       id="path645" />
    <path
       style="fill:#ffffff;stroke:#ffffff;stroke-width:0.264583px;stroke-linecap:butt;stroke-linejoin:miter;stroke-opacity:1"
       d="m 50.614767,122.48341 0.03832,-0.57482 -0.996349,-0.88138 -12.032843,-0.99635 -9.2354,3.37226 -0.613137,-0.11496 -1.456204,0.88138 0.114962,0.49818 2.069343,0.45985 0.574818,-0.68978 1.072991,0.11497 5.403284,-1.99271 1.379561,0.11497 1.226278,-0.80475 11.802917,0.22993 z"
       id="path680" />
    <path
       id="path750"
       style="fill:#ffffff;stroke:#ffffff;stroke-width:0.999999px;stroke-linecap:butt;stroke-linejoin:miter;stroke-opacity:1"
       d="M 405.50195 55.169922 L 402.89453 55.748047 L 386.5293 55.603516 L 381.16992 57.630859 L 375.08594 58.935547 L 364.36914 63.859375 L 360.89258 65.017578 L 353.79492 67.335938 L 347.85742 67.480469 L 346.98828 73.998047 L 342.20898 75.880859 L 343.51172 89.349609 L 345.83008 106.58594 L 347.13281 112.23438 L 347.13281 118.75195 L 348.29297 123.9668 L 348.00195 142.35938 L 352.63672 142.50586 L 354.51953 142.50586 L 356.83789 145.11133 L 357.99609 150.4707 L 359.87891 150.32617 L 366.97656 161.76758 L 372.18945 161.62305 L 375.95508 163.07227 L 378.85156 167.41602 L 379.57617 172.48633 L 385.94922 172.05078 L 386.23828 171.47266 L 395.79883 170.74805 L 412.30859 168.57617 L 417.23438 168.7207 L 418.53711 160.75391 L 419.11719 158.72656 L 423.31641 154.96094 L 426.79297 145.40234 L 430.26953 138.74023 L 433.31055 125.70508 L 434.46875 119.91016 L 434.17969 101.37109 L 435.62891 98.474609 L 439.82812 96.591797 L 444.60742 97.605469 L 446.92578 102.24023 L 450.25586 102.96484 L 452.86328 100.50195 L 460.97461 100.21289 L 460.53906 97.460938 L 423.75195 57.486328 L 415.78516 55.458984 L 411.00586 56.472656 L 405.50195 55.169922 z M 386.81836 65.162109 L 389.13672 68.058594 L 391.30859 70.810547 L 391.59766 74.722656 L 391.74219 80.371094 L 391.16406 86.744141 L 390.43945 90.363281 L 388.26758 94.853516 L 385.36914 98.474609 L 382.18359 99.923828 L 377.98242 100.64648 L 374.79688 100.35742 L 368.85938 95.722656 L 365.81641 90.798828 L 365.23828 87.613281 L 366.83008 73.708984 L 368.42383 72.984375 L 373.63867 71.101562 L 377.54883 69.507812 L 381.60352 67.769531 L 386.81836 65.162109 z "
       transform="matrix(0.26458333,0,0,0.26458333,-64.53019,108.76797)" />
    <rect
       style="opacity:1;fill:none;stroke-width:0.264583"
       id="rect1095"
       width="134.44034"
       height="59.45369"
       x="-64.53019"
       y="108.76797" />
  </g>
</svg>
